<svg aria-hidden="true" style="position: absolute; width: 0; height: 0; overflow: hidden;" version="1.1" xmlns="http://www.w3.org/2000/svg" xmlns:xlink="http://www.w3.org/1999/xlink">
<defs>
<symbol id="icon-firebase" viewBox="0 0 32 32">
<path d="M5.187 20.897l3.153-20.283c0.055-0.35 0.354-0.614 0.714-0.614 0.276 0 0.515 0.154 0.637 0.381l0.002 0.004 3.391 6.361zM27.58 25.819l-3.003-18.665c-0.060-0.345-0.357-0.604-0.714-0.604-0.199 0-0.379 0.080-0.51 0.21l0-0-18.933 19.059 10.476 5.904c0.304 0.174 0.669 0.277 1.058 0.277s0.754-0.103 1.069-0.282l-0.011 0.006zM19.067 9.531l-2.427-4.643c-0.123-0.232-0.364-0.387-0.64-0.387s-0.517 0.155-0.638 0.383l-0.002 0.004-10.653 19.091z"></path>
</symbol>
<symbol id="icon-dart" viewBox="0 0 32 32">
<path d="M5.473 5.473c0 0 6.737-3.367 10.105-5.052 0.53-0.267 1.154-0.423 1.815-0.423 0.056 0 0.112 0.001 0.167 0.003l-0.008-0c1.021 0.063 2.236 1.051 2.236 1.051l12.211 12.212v13.052h-5.684v5.684h-13.264l-12-12c-0.648-0.667-1.052-1.607-1.052-2.527 0-0.425 0.24-1.091 0.421-1.473zM6.379 6.379v15.716c0.003 0.724 0.028 1.365 0.664 2.011l6.563 6.561h11.377v-5.684zM22.452 5.475c-1.199-1.195-2.412-2.373-3.653-3.524-0.403-0.356-0.756-0.624-1.427-0.616-0.493 0.019-1.16 0.26-1.16 0.26l-7.757 3.879z"></path>
</symbol>
<symbol id="icon-flutter" viewBox="0 0 32 32">
<path d="M19.085 0l-16.019 16 4.933 4.933 20.912-20.917h-9.809zM19.104 14.763l-8.628 8.609 8.627 8.627h9.831l-8.613-8.624 8.613-8.613z"></path>
</symbol>
</defs>
</svg>
